<?xml version="1.0" encoding="utf-8"?>
<!-- Generator: Adobe Illustrator 25.2.0, SVG Export Plug-In . SVG Version: 6.00 Build 0)  -->
<svg version="1.1" id="Layer_1" xmlns="http://www.w3.org/2000/svg" xmlns:xlink="http://www.w3.org/1999/xlink" x="0px" y="0px"
	 viewBox="0 0 1000 1000" style="enable-background:new 0 0 1000 1000;" xml:space="preserve">
<style type="text/css">
	.st0{fill-rule:evenodd;clip-rule:evenodd;fill:#A950FF;}
</style>
<path class="st0" d="M605.3,286.7c12.1-9.4,19.8-24,19.8-40.5c0-28.3-23-51.3-51.3-51.3c-26.4,0-48.2,20-51,45.6H329.9
	c-2.8-25.6-24.6-45.6-51-45.6c-28.4,0-51.3,23-51.3,51.3c0,28.3,23,51.3,51.3,51.3c6.2,0,12.2-1.1,17.8-3.2l97.5,167.2
	c-11.7,9.4-19.2,23.8-19.2,40c0,16,7.3,30.3,18.8,39.7L297.6,706c-5.8-2.3-12.2-3.5-18.8-3.5c-28.4,0-51.3,23-51.3,51.3
	c0,28.3,23,51.3,51.3,51.3c25.7,0,47-18.9,50.8-43.5H523c3.7,24.6,25,43.5,50.8,43.5c28.4,0,51.3-23,51.3-51.3
	c0-16.1-7.4-30.4-19-39.8l96.7-164.5c5.7,2.2,11.9,3.4,18.4,3.4c28.4,0,51.3-23,51.3-51.3c0-28.3-23-51.3-51.3-51.3
	c-6.3,0-12.3,1.1-17.9,3.2L605.3,286.7z M556,294.4c5.5,2,11.5,3.1,17.8,3.1c6.2,0,12.2-1.1,17.8-3.2l98,166.8
	c-9.9,7.8-16.9,19.1-19,32H476.9c-2.1-12.7-8.9-23.9-18.5-31.6L556,294.4z M523.4,256.3c2.4,12.3,9.3,23,18.8,30.4l-97.4,167
	c-5.7-2.2-12-3.4-18.5-3.4c-6.5,0-12.7,1.2-18.5,3.4l-97.4-167c9.5-7.4,16.4-18.1,18.8-30.4H523.4z M458.8,541.2
	c9.7-7.9,16.4-19.3,18.3-32.3h193.2c1.9,13.2,8.8,24.8,18.8,32.7L592.5,706c-5.8-2.3-12.2-3.5-18.8-3.5c-6.6,0-12.9,1.2-18.8,3.5
	L458.8,541.2z M407.3,549.2c5.9,2.3,12.3,3.6,19,3.6c6.7,0,13.1-1.3,19-3.6l96.1,164.7c-9.6,7.8-16.4,19.1-18.4,31.9H329.6
	c-2-12.8-8.7-24-18.4-31.8L407.3,549.2z"/>
</svg>
