<?xml version="1.0" encoding="UTF-8"?>
<svg width="423px" height="72px" viewBox="0 0 423 72" version="1.1" xmlns="http://www.w3.org/2000/svg" xmlns:xlink="http://www.w3.org/1999/xlink">
    <!-- Generator: Sketch 63.1 (92452) - https://sketch.com -->
    <title>Logo</title>
    <desc>Created with Sketch.</desc>
    <g id="Page-1" stroke="none" stroke-width="1" fill="none" fill-rule="evenodd">
        <g id="StoreAds_landing_page" transform="translate(-509.000000, -3642.000000)" fill="#001330">
            <g id="Group-Copy-4" transform="translate(0.000000, 3240.000000)">
                <g id="Logo" transform="translate(509.000000, 378.000000)">
                    <g id="logo-full" transform="translate(0.000000, 24.000000)">
                        <path d="M374.445354,29.5185827 C372.154961,31.5722835 370.771654,34.7391496 370.771654,39.2524724 L370.771654,56.4094488 L375.87685,56.4094488 L375.87685,39.1952126 C375.87685,36.2307402 376.738583,33.8873386 378.32315,32.2829291 C379.907717,30.679937 382.08189,29.9491654 384.44315,29.9491654 C386.492598,29.9491654 388.405984,30.5005039 389.91685,31.7052283 C391.43622,32.9170394 392.453858,34.7130709 392.836535,37.0139528 L392.859213,37.1616378 L392.845039,37.3110236 C392.785512,37.928126 392.754331,38.5752756 392.754331,39.2524724 L392.754331,56.4094488 L398.111811,56.4094488 L398.111811,39.2524724 C398.111811,38.5749921 398.08063,37.928126 398.021102,37.3110236 L398.006929,37.1619213 L398.029606,37.0139528 C398.412283,34.7130709 399.429921,32.9173228 400.949291,31.7052283 C402.460157,30.5005039 404.373543,29.9491654 406.422992,29.9491654 C408.784252,29.9491654 410.958425,30.679937 412.542992,32.2829291 C414.127559,33.8873386 414.989291,36.2307402 414.989291,39.1952126 L414.989291,56.4094488 L420.094488,56.4094488 L420.094488,39.2524724 C420.094488,34.7394331 418.711181,31.5773858 416.423622,29.5262362 C414.113386,27.456378 410.71748,26.3715591 406.422992,26.3622047 C401.995276,26.3622047 398.522835,27.515622 396.209764,29.7172913 L395.430236,30.460252 L394.647874,29.7184252 C392.334803,27.5229921 388.868031,26.3718425 384.440315,26.3622047 C380.145827,26.3622047 376.752756,27.4470236 374.445354,29.5185827 Z M372.928819,27.8305512 C375.786142,25.267748 379.794331,24.0944882 384.44315,24.0944882 L384.44315,24.0944882 C388.811339,24.1038425 392.615433,25.1413228 395.427402,27.392315 C398.242205,25.1339528 402.049134,24.0944882 406.422992,24.0944882 L406.425827,24.0944882 C411.071811,24.1044094 415.08,25.2773858 417.937323,27.8373543 C420.814488,30.416315 422.362205,34.2569764 422.362205,39.2524724 L422.362205,58.6771654 L412.721575,58.6771654 L412.721575,39.1952126 C412.721575,36.6684094 411.995906,34.9557165 410.930079,33.8768504 C409.861417,32.7965669 408.31937,32.2168819 406.422992,32.2168819 C404.773228,32.2168819 403.392756,32.6576693 402.36378,33.4782992 C401.368819,34.2705827 400.611969,35.4889134 400.291654,37.2446929 C400.351181,37.8918425 400.379528,38.5611024 400.379528,39.2524724 L400.379528,58.6771654 L390.486614,58.6771654 L390.486614,39.2524724 C390.486614,38.5611024 390.514961,37.8918425 390.574488,37.2446929 C390.254173,35.4889134 389.497323,34.2705827 388.502362,33.4782992 C387.473386,32.6576693 386.092913,32.2168819 384.44315,32.2168819 C382.546772,32.2168819 381.004724,32.7965669 379.936063,33.8768504 C378.870236,34.9557165 378.144567,36.6684094 378.144567,39.1952126 L378.144567,58.6771654 L368.503937,58.6771654 L368.503937,39.2524724 C368.503937,34.2572598 370.051654,30.4117795 372.928819,27.8305512 Z" id="Shape"></path>
                        <path d="M339.097323,30.0548976 C336.546142,32.739874 335.055118,36.623622 335.055118,41.3858268 C335.055118,46.1480315 336.546142,50.0317795 339.097323,52.7167559 C341.642835,55.3954961 345.336378,56.976378 349.937008,56.976378 C354.537638,56.976378 358.231181,55.3954961 360.776693,52.7167559 C363.327874,50.0317795 364.818898,46.1480315 364.818898,41.3858268 C364.818898,36.623622 363.327874,32.739874 360.776693,30.0548976 C358.231181,27.3761575 354.537638,25.7952756 349.937008,25.7952756 C345.336378,25.7952756 341.642835,27.3761575 339.097323,30.0548976 Z M337.453228,28.4924409 C340.48063,25.3091339 344.794961,23.5275591 349.937008,23.5275591 C355.079055,23.5275591 359.393386,25.3091339 362.420787,28.4924409 C365.439685,31.6700787 367.086614,36.148252 367.086614,41.3858268 C367.086614,46.6234016 365.439685,51.1015748 362.420787,54.2792126 C359.393386,57.4625197 355.079055,59.2440945 349.937008,59.2440945 C344.794961,59.2440945 340.48063,57.4625197 337.453228,54.2792126 C334.434331,51.1015748 332.787402,46.6234016 332.787402,41.3858268 C332.787402,36.148252 334.434331,31.6700787 337.453228,28.4924409 Z M342.737008,32.767937 C344.437795,30.6076535 346.920945,29.4383622 349.937008,29.4383622 C352.955906,29.4383622 355.439055,30.6138898 357.139843,32.775874 C358.812283,34.9038425 359.642835,37.8782362 359.642835,41.3665512 C359.642835,44.8636535 358.812283,47.8386142 357.137008,49.9648819 C355.43622,52.1251654 352.953071,53.2947402 349.937008,53.2947402 C346.909606,53.2947402 344.426457,52.1257323 342.728504,49.964315 C341.056063,47.8374803 340.231181,44.8619528 340.231181,41.3665512 C340.231181,37.8694488 341.061732,34.8942047 342.737008,32.767937 Z M344.517165,34.1708031 C343.255748,35.7749291 342.498898,38.1971339 342.498898,41.3665512 C342.498898,44.5373858 343.250079,46.9593071 344.511496,48.5628661 C345.744567,50.1318425 347.547402,51.0270236 349.937008,51.0270236 C352.31811,51.0270236 354.120945,50.1324094 355.35685,48.5620157 C356.618268,46.9578898 357.375118,44.5359685 357.375118,41.3665512 C357.375118,38.2073386 356.621102,35.7848504 355.35685,34.1776063 C354.11811,32.603811 352.315276,31.7060787 349.937008,31.7060787 C347.555906,31.7060787 345.753071,32.6004094 344.517165,34.1708031 Z" id="Shape"></path>
                        <path d="M305.696693,30.1243465 C303.094488,32.8325669 301.606299,36.715748 301.606299,41.3858268 C301.606299,46.0457008 303.094488,49.9294488 305.696693,52.6402205 C308.290394,55.3453228 312.08315,56.976378 316.876535,56.976378 C322.60252,56.976378 326.92252,54.6292913 329.71748,50.7719055 L325.882205,48.8236535 C324.918425,50.0842205 323.846929,51.1341732 322.579843,51.9020787 C321.037795,52.8372283 319.27748,53.3140157 317.199685,53.3140157 C314.146772,53.3140157 311.555906,52.1926299 309.747402,50.060126 C307.955906,47.9488819 307.028976,44.9628661 307.028976,41.3858268 C307.028976,37.8087874 307.955906,34.8227717 309.747402,32.7115276 C311.555906,30.5790236 314.146772,29.4576378 317.199685,29.4576378 C319.27748,29.4576378 321.037795,29.9344252 322.579843,30.8695748 C323.846929,31.6374803 324.918425,32.6874331 325.882205,33.948 L329.71748,31.999748 C326.92252,28.1423622 322.60252,25.7952756 316.876535,25.7952756 C312.08315,25.7952756 308.290394,27.4220787 305.696693,30.1243465 Z M304.061102,28.5536693 C307.136693,25.3502362 311.547402,23.5275591 316.876535,23.5275591 C323.866772,23.5275591 329.167559,26.6901732 332.336693,31.8381732 L332.980157,32.8861417 L325.15937,36.8586142 L324.59811,36.0388346 C323.59748,34.580126 322.568504,33.5145827 321.403465,32.8084724 C320.255433,32.1108661 318.906142,31.7253543 317.199685,31.7253543 C314.736378,31.7253543 312.808819,32.6097638 311.476535,34.1787402 C310.127244,35.7689764 309.296693,38.180126 309.296693,41.3858268 C309.296693,44.5915276 310.127244,47.0026772 311.476535,48.5929134 C312.808819,50.1618898 314.736378,51.0462992 317.199685,51.0462992 C318.906142,51.0462992 320.255433,50.6607874 321.403465,49.9631811 C322.568504,49.2570709 323.59748,48.1915276 324.59811,46.7328189 L325.15937,45.9130394 L332.980157,49.8855118 L332.336693,50.9334803 C329.167559,56.0814803 323.866772,59.2440945 316.876535,59.2440945 C311.547402,59.2440945 307.136693,57.4160315 304.061102,54.2103307 C300.991181,51.0105827 299.338583,46.5318425 299.338583,41.3858268 C299.338583,36.2307402 300.988346,31.7514331 304.061102,28.5536693 Z" id="Shape"></path>
                        <path d="M290.409449,49.8897638 C288.365669,49.8897638 286.866142,51.3773858 286.866142,53.2814173 C286.866142,55.2084094 288.368504,56.6929134 290.409449,56.6929134 C292.422047,56.6929134 293.935748,55.2135118 293.952756,53.2771654 C293.949921,51.3751181 292.450394,49.8897638 290.409449,49.8897638 Z M284.598425,53.2814173 C284.598425,50.0473701 287.192126,47.6220472 290.409449,47.6220472 C293.626772,47.6220472 296.220472,50.0473701 296.220472,53.2814173 L296.220472,53.2859528 L296.220472,53.2902047 C296.194961,56.5293543 293.612598,58.9606299 290.409449,58.9606299 C287.189291,58.9606299 284.598425,56.532189 284.598425,53.2814173 Z" id="Shape"></path>
                        <path d="M256.988976,35.340378 L256.988976,58.0906772 L249.732283,58.0906772 L249.732283,12.4724409 L256.988976,12.4724409 L256.988976,29.4712441 C259.43811,26.9784567 263.066457,24.9763465 267.678425,24.9763465 C274.373858,24.9763465 278.929134,29.235685 278.929134,37.1069291 L278.929134,58.1102362 L271.672441,58.1102362 L271.672441,38.1670866 C271.672441,33.5933858 269.705197,30.9826772 265.518425,30.9826772 C261.966614,30.9631181 258.706772,33.1027087 256.988976,35.340378 Z" id="Path" fill-rule="nonzero"></path>
                        <path d="M232.53789,25.7952756 C239.079685,25.7952756 243.965764,28.760315 246.897638,33.5664567 L241.113827,36.5314961 C239.019591,33.4502362 236.606457,31.7253543 232.857071,31.7253543 C227.392441,31.7253543 223.902142,35.7369449 223.902142,42.519685 C223.902142,49.3024252 227.392441,53.3140157 232.857071,53.3140157 C236.606457,53.3140157 239.019591,51.5891339 241.113827,48.507874 L246.897638,51.4729134 C243.965764,56.2790551 239.079685,59.2440945 232.53789,59.2440945 C222.506079,59.2440945 216.283465,52.3255748 216.283465,42.519685 C216.283465,32.6942362 222.506079,25.7952756 232.53789,25.7952756 Z" id="Path" fill-rule="nonzero"></path>
                        <path d="M183.968504,44.7080315 L183.968504,25.7952756 L191.309386,25.7952756 L191.309386,44.7871181 C191.309386,50.4708661 194.472,53.184189 198.708661,53.184189 C202.945323,53.184189 206.107937,50.4708661 206.107937,44.7871181 L206.107937,25.7952756 L213.448819,25.7952756 L213.448819,44.727874 C213.448819,54.5703307 207.611433,59.2440945 198.708661,59.2440945 C189.80589,59.224252 183.968504,54.5504882 183.968504,44.7080315 Z" id="Path" fill-rule="nonzero"></path>
                        <path d="M164.125984,59.2440945 C154.297701,59.2440945 147.968504,52.5194646 147.968504,42.519685 C147.968504,32.5199055 154.297701,25.7952756 164.125984,25.7952756 C173.954268,25.7952756 180.283465,32.5199055 180.283465,42.519685 C180.283465,52.5194646 173.954268,59.2440945 164.125984,59.2440945 Z M164.125984,31.7060787 C158.681197,31.7060787 155.477197,35.8338898 155.477197,42.5004094 C155.477197,49.1669291 158.661638,53.2947402 164.125984,53.2947402 C169.570772,53.2947402 172.774772,49.1669291 172.774772,42.5004094 C172.774772,35.8531654 169.570772,31.7060787 164.125984,31.7060787 Z" id="Shape" fill-rule="nonzero"></path>
                        <path d="M132.209575,47.6900787 L132.209575,32.0164724 L126.708661,32.0164724 L126.708661,26.1314646 L132.209575,26.1314646 L132.209575,16.4409449 L139.341827,16.4409449 L139.341827,26.1314646 L146.834646,26.1314646 L146.834646,31.9969134 L139.341827,31.9969134 L139.341827,47.9253543 C139.341827,51.5545512 140.479937,53.2414488 144.235843,53.2414488 C145.146331,53.2414488 146.113795,53.2414488 146.834646,53.1824882 L146.834646,59.047937 C145.677543,59.1655748 144.292819,59.2440945 143.021764,59.2440945 C135.472252,59.2440945 132.209575,55.8113386 132.209575,47.6900787 Z" id="Path" fill-rule="nonzero"></path>
                        <path d="M123.874016,39.8194016 L123.874016,58.1102362 L116.603717,58.1102362 L116.603717,39.7621417 C116.603717,34.2711496 113.471433,31.6499528 109.275591,31.6499528 C105.079748,31.6499528 101.947465,34.2711496 101.947465,39.7621417 L101.947465,58.1102362 L94.6771654,58.1102362 L94.6771654,39.8194016 C94.6771654,30.3105827 100.458425,25.7952756 109.275591,25.7952756 C118.092756,25.8142677 123.874016,30.3105827 123.874016,39.8194016 Z" id="Path" fill-rule="nonzero"></path>
                        <path d="M85.7480315,21.3712441 C83.1183307,21.3712441 81.0708661,19.4519055 81.0708661,16.912063 C81.0708661,14.3917795 83.1183307,12.4724409 85.7480315,12.4724409 C88.3777323,12.4724409 90.4251969,14.3917795 90.4251969,16.912063 C90.4050709,19.4519055 88.3576063,21.3712441 85.7480315,21.3712441 Z M81.9742677,26.1212598 L89.5016693,26.1212598 L89.5016693,58.1102362 L81.9742677,58.1102362 L81.9742677,26.1212598 Z" id="Shape" fill-rule="nonzero"></path>
                        <path d="M44.6005984,10.8257953 C46.0241575,9.71829921 46.9391811,7.99086614 46.9391811,6.05074961 C46.9391811,2.71045984 44.2264252,0 40.8767244,0 C37.7540787,0 35.1847559,2.35578898 34.8511181,5.38143307 L12.0883465,5.38143307 C11.7544252,2.35578898 9.18538583,0 6.06245669,0 C2.71275591,0 0,2.71045984 0,6.05074961 C0,9.39089764 2.71275591,12.1013858 6.06245669,12.1013858 C6.80059843,12.1013858 7.50755906,11.9698583 8.16151181,11.7289134 L19.6766929,31.4645669 C18.2928189,32.5737638 17.4072756,34.2765354 17.4072756,36.1848189 C17.4072756,38.0709921 18.272126,39.756189 19.6282205,40.8659528 L8.27971654,60.315874 C7.59316535,60.0465827 6.84510236,59.8986142 6.06245669,59.8986142 C2.71275591,59.8986142 0,62.6091024 0,65.9491654 C0,69.2895118 2.71275591,72 6.06245669,72 C9.09977953,72 11.6132598,69.771685 12.055748,66.8658898 L34.8834331,66.8658898 C35.3259213,69.771685 37.839685,72 40.8767244,72 C44.2264252,72 46.9391811,69.2895118 46.9391811,65.9491654 C46.9391811,64.0547717 46.0663937,62.3624882 44.699811,61.2530079 L56.1146457,41.8368189 C56.7881575,42.0944882 57.5194961,42.2356535 58.284,42.2356535 C61.6337008,42.2356535 64.3464567,39.5251654 64.3464567,36.1848189 C64.3464567,32.8444724 61.6337008,30.1342677 58.284,30.1342677 C57.5416063,30.1342677 56.8306772,30.2672126 56.1736063,30.5107087 L44.6005984,10.8257953 Z M38.7802205,11.7300472 C39.4336063,11.9701417 40.1397165,12.1013858 40.8767244,12.1013858 C41.6145827,12.1013858 42.3215433,11.9698583 42.9754961,11.7291969 L54.5504882,31.4172283 C53.3792126,32.332252 52.5540472,33.667937 52.3023307,35.195811 L29.4514016,35.195811 C29.2042205,33.6948661 28.4034331,32.3795906 27.2647559,31.4659843 L38.7802205,11.7300472 Z M34.9307717,7.23710551 C35.2199055,8.68762205 36.0283465,9.95159055 37.1551181,10.8274961 L25.6538268,30.5387717 C24.9763465,30.2774173 24.2399055,30.1342677 23.4697323,30.1342677 C22.7004094,30.1342677 21.9648189,30.2771339 21.2879055,30.5376378 L9.78633071,10.8257953 C10.9119685,9.95017323 11.7195591,8.68677165 12.0084094,7.23710551 L34.9307717,7.23710551 Z M27.3132283,40.8645354 C28.4567244,39.927685 29.2504252,38.5817953 29.4703937,37.0516535 L52.2833386,37.0516535 C52.5072756,38.6087244 53.3253543,39.9753071 54.5011654,40.9135748 L43.0942677,60.3161575 C42.4077165,60.0465827 41.6596535,59.8986142 40.8767244,59.8986142 C40.0952126,59.8986142 39.348,60.0460157 38.6622992,60.3150236 L27.3132283,40.8645354 Z M21.2297953,41.8093228 C21.9225827,42.0842835 22.6782992,42.2356535 23.4697323,42.2356535 C24.2620157,42.2356535 25.0185827,42.084 25.711937,41.808189 L37.0564724,61.2510236 C35.9186457,62.1737008 35.1226772,63.499748 34.8868346,65.0103307 L12.0523465,65.0103307 C11.8165039,63.5005984 11.0216693,62.1751181 9.88497638,61.2524409 L21.2297953,41.8093228 Z" id="Shape"></path>
                    </g>
                </g>
            </g>
        </g>
    </g>
</svg>